Coordinates
version=1
nRows=14
nColumns=61
inDegrees=no

Units are S.I. units (second, meters, Newtons, ...)
If the header above contains a line with 'inDegrees', this indicates whether rotational values are in degrees (yes) or radians (no).

endheader
time	pelvis_x	pelvis_y	pelvis_z	femur_r_x	femur_r_y	femur_r_z	tibia_r_x	tibia_r_y	tibia_r_z	talus_r_x	talus_r_y	talus_r_z	calcn_r_x	calcn_r_y	calcn_r_z	toes_r_x	toes_r_y	toes_r_z	femur_l_x	femur_l_y	femur_l_z	tibia_l_x	tibia_l_y	tibia_l_z	talus_l_x	talus_l_y	talus_l_z	calcn_l_x	calcn_l_y	calcn_l_z	toes_l_x	toes_l_y	toes_l_z	torso_x	torso_y	torso_z	humerus_r_x	humerus_r_y	humerus_r_z	ulna_r_x	ulna_r_y	ulna_r_z	radius_r_x	radius_r_y	radius_r_z	hand_r_x	hand_r_y	hand_r_z	humerus_l_x	humerus_l_y	humerus_l_z	ulna_l_x	ulna_l_y	ulna_l_z	radius_l_x	radius_l_y	radius_l_z	hand_l_x	hand_l_y	hand_l_z
0	0.542305	0.993937	-0.957374	0.611653	0.92559	-0.89272	0.664815	0.52538	-0.879583	0.722442	0.0676856	-0.815372	0.732173	0.038529	-0.774029	0.750892	0.0219703	-0.948258	0.458142	0.92494	-0.914749	0.427744	0.523919	-0.88178	0.393503	0.063767	-0.818415	0.386305	0.032253	-0.778301	0.354577	0.0261428	-0.951323	0.528979	1.06918	-0.866736	0.733449	1.44342	-0.88079	1.06696	1.3354	-0.881534	1.0856	1.36711	-0.901139	0.995235	1.38292	-1.15113	0.352282	1.45323	-0.924615	0.0363441	1.31893	-0.853578	0.0121187	1.34942	-0.868459	0.055585	1.37425	-1.13
0.01	0.542279	0.993993	-0.957433	0.611577	0.925581	-0.892792	0.664818	0.525369	-0.879807	0.722426	0.0677042	-0.81537	0.732127	0.0385356	-0.774029	0.750869	0.0219938	-0.948257	0.458074	0.925005	-0.914878	0.427759	0.524032	-0.881642	0.393351	0.0636775	-0.819858	0.386257	0.0322505	-0.779659	0.354005	0.025786	-0.95257	0.528951	1.06919	-0.866756	0.733362	1.44347	-0.880737	1.06687	1.33544	-0.881459	1.08551	1.36716	-0.901069	0.995111	1.38294	-1.15105	0.352204	1.45321	-0.924646	0.0362498	1.31892	-0.853676	0.0120281	1.3494	-0.868578	0.055597	1.37413	-1.13011
0.02	0.542237	0.99394	-0.957463	0.611493	0.925497	-0.892811	0.664849	0.525278	-0.880133	0.722415	0.0676529	-0.815379	0.732072	0.0384624	-0.774043	0.75086	0.0219686	-0.948271	0.457995	0.92498	-0.914938	0.427726	0.524	-0.881733	0.393379	0.0636484	-0.819886	0.386277	0.0322313	-0.77968	0.354008	0.0257399	-0.952587	0.528912	1.06913	-0.866783	0.733257	1.44345	-0.880665	1.06679	1.33551	-0.881361	1.08542	1.36722	-0.90098	0.994984	1.38293	-1.15095	0.352114	1.45312	-0.924727	0.0361366	1.31884	-0.853843	0.0119213	1.34932	-0.868768	0.0556282	1.37396	-1.13029
0.03	0.542224	0.993914	-0.957466	0.611462	0.92546	-0.892806	0.664843	0.525238	-0.880213	0.722404	0.0676238	-0.815375	0.732058	0.0384354	-0.774037	0.750871	0.0219376	-0.948262	0.457969	0.924951	-0.914967	0.42772	0.523966	-0.881787	0.393407	0.0636207	-0.819876	0.3863	0.0322017	-0.779673	0.354012	0.0257332	-0.952577	0.528881	1.0691	-0.866778	0.733174	1.44344	-0.880589	1.06674	1.33559	-0.881267	1.08536	1.3673	-0.900895	0.994871	1.38293	-1.15085	0.352044	1.45306	-0.924767	0.0360434	1.3188	-0.853954	0.0118342	1.34927	-0.868904	0.0556687	1.3738	-1.13041
0.04	0.542207	0.993942	-0.957462	0.611439	0.925478	-0.892808	0.664836	0.525255	-0.880253	0.722395	0.0676487	-0.815357	0.732048	0.0384701	-0.774012	0.750901	0.021942	-0.948229	0.457951	0.924959	-0.914999	0.427707	0.523973	-0.881812	0.39341	0.0636345	-0.819846	0.386304	0.0322064	-0.779649	0.353995	0.0257842	-0.952552	0.528839	1.0691	-0.866757	0.733091	1.44347	-0.880484	1.06668	1.33571	-0.881166	1.08529	1.36743	-0.900805	0.994747	1.38297	-1.15074	0.351976	1.45304	-0.924812	0.0359641	1.31878	-0.854054	0.0117588	1.34924	-0.869031	0.055718	1.37365	-1.13053
0.05	0.542193	0.993937	-0.957489	0.611421	0.925484	-0.892818	0.664815	0.525265	-0.880206	0.722401	0.0676515	-0.815385	0.732058	0.038478	-0.774037	0.750917	0.0219376	-0.948253	0.457942	0.924923	-0.915069	0.4277	0.523941	-0.881843	0.393392	0.0636039	-0.819868	0.386276	0.032179	-0.77967	0.354023	0.0257379	-0.952583	0.528768	1.06908	-0.866778	0.733008	1.44346	-0.880402	1.06665	1.33585	-0.881063	1.08524	1.36757	-0.900712	0.994675	1.383	-1.15065	0.351914	1.45301	-0.924914	0.0359064	1.31872	-0.854185	0.0117033	1.34917	-0.869175	0.0557576	1.37356	-1.13066
0.06	0.542176	0.993929	-0.957502	0.611398	0.925493	-0.892807	0.66478	0.525279	-0.880118	0.722395	0.0676547	-0.815397	0.732063	0.03848	-0.774053	0.7509	0.0219519	-0.948272	0.457927	0.924893	-0.915113	0.427683	0.523913	-0.881862	0.393363	0.0635797	-0.819871	0.386232	0.0321592	-0.779673	0.35403	0.0257026	-0.952594	0.528699	1.06907	-0.866796	0.732918	1.44346	-0.88033	1.06661	1.33599	-0.880941	1.08518	1.36772	-0.900599	0.994625	1.38304	-1.15055	0.351843	1.45299	-0.925003	0.0358427	1.31867	-0.854294	0.0116414	1.34912	-0.869292	0.055775	1.37351	-1.13076
0.07	0.54213	0.993956	-0.957494	0.611328	0.925507	-0.892786	0.664754	0.525292	-0.880177	0.722373	0.0676823	-0.815362	0.732029	0.0385053	-0.774016	0.750894	0.0219805	-0.948232	0.457863	0.924923	-0.915136	0.427635	0.523944	-0.881859	0.393328	0.0636134	-0.819838	0.38619	0.0321962	-0.779638	0.353989	0.0257359	-0.95256	0.528634	1.06908	-0.866783	0.732818	1.4435	-0.880258	1.06655	1.33616	-0.880795	1.08512	1.36789	-0.900457	0.994579	1.38313	-1.15042	0.351756	1.45298	-0.925053	0.035764	1.31862	-0.854402	0.0115627	1.34906	-0.869418	0.0558047	1.37339	-1.13088
0.08	0.542087	0.993949	-0.957498	0.611259	0.925491	-0.892771	0.664724	0.52528	-0.880201	0.722369	0.0676749	-0.815371	0.732022	0.0384937	-0.774028	0.750884	0.0219815	-0.948245	0.4578	0.924928	-0.915161	0.427608	0.523948	-0.881866	0.393323	0.0636133	-0.819864	0.38617	0.0322137	-0.779653	0.353983	0.0256941	-0.952575	0.528577	1.06908	-0.866792	0.732737	1.44351	-0.880242	1.06652	1.33633	-0.880656	1.08507	1.36806	-0.900319	0.994587	1.38322	-1.1503	0.351682	1.45297	-0.925099	0.0356962	1.31854	-0.854524	0.011495	1.34898	-0.869557	0.0558498	1.37327	-1.131
0.09	0.542075	0.993908	-0.957499	0.611215	0.925455	-0.892733	0.664726	0.525244	-0.880257	0.722382	0.0676452	-0.815395	0.732023	0.038456	-0.774054	0.750885	0.0219625	-0.948274	0.457761	0.924921	-0.915159	0.4276	0.523938	-0.881885	0.393342	0.0635997	-0.819891	0.386178	0.0322242	-0.779664	0.353926	0.0256414	-0.95257	0.528563	1.06907	-0.866821	0.732657	1.44354	-0.880156	1.06648	1.33651	-0.880494	1.08503	1.36824	-0.90016	0.99463	1.38328	-1.15018	0.351618	1.45293	-0.925167	0.0356416	1.31847	-0.85463	0.0114413	1.3489	-0.869669	0.0558715	1.37321	-1.1311
0.1	0.542051	0.993898	-0.957498	0.611146	0.925442	-0.892687	0.664752	0.525228	-0.880442	0.722387	0.0676558	-0.815373	0.731993	0.038462	-0.774028	0.750899	0.0219549	-0.948242	0.457698	0.924962	-0.915154	0.427559	0.523973	-0.881908	0.393342	0.0636388	-0.81986	0.386184	0.0322844	-0.779615	0.353759	0.0256627	-0.952488	0.528545	1.0691	-0.866853	0.73255	1.44363	-0.879989	1.06641	1.3367	-0.880311	1.08496	1.36843	-0.899979	0.994658	1.38337	-1.15004	0.35154	1.45292	-0.925262	0.0355927	1.31838	-0.854744	0.0113901	1.34881	-0.869778	0.0558687	1.37322	-1.13119
0.11	0.542007	0.993908	-0.957503	0.611074	0.925451	-0.892664	0.664731	0.525237	-0.880521	0.722371	0.0676766	-0.815372	0.731963	0.0384846	-0.774022	0.750917	0.0219675	-0.94823	0.457634	0.92498	-0.915186	0.427511	0.52399	-0.881935	0.393319	0.0636592	-0.819849	0.386165	0.0323092	-0.7796	0.353696	0.0256778	-0.952464	0.528473	1.06912	-0.866867	0.732455	1.44366	-0.879973	1.06636	1.33688	-0.880155	1.08491	1.36862	-0.899817	0.994693	1.38351	-1.14992	0.351452	1.45293	-0.925315	0.0355301	1.31827	-0.854905	0.0113236	1.3487	-0.869931	0.0558681	1.37324	-1.13132
0.12	0.541955	0.993906	-0.95749	0.611005	0.925462	-0.892619	0.664683	0.52525	-0.880505	0.722342	0.0676871	-0.815395	0.731932	0.0384914	-0.774047	0.750906	0.0219936	-0.948254	0.457572	0.924978	-0.91519	0.427482	0.523986	-0.881941	0.393314	0.0636498	-0.819881	0.386147	0.0322972	-0.779636	0.353786	0.0256568	-0.95252	0.528387	1.06913	-0.866869	0.732359	1.44368	-0.879971	1.06632	1.33705	-0.880016	1.08485	1.3688	-0.89967	0.994736	1.38365	-1.14981	0.351363	1.45293	-0.925376	0.0354656	1.31817	-0.855054	0.0112551	1.3486	-0.870075	0.055859	1.37323	-1.13144
0.13	0.541913	0.993934	-0.957448	0.610946	0.925489	-0.89256	0.664643	0.525276	-0.880513	0.722307	0.0677143	-0.815398	0.731893	0.0385218	-0.774047	0.750876	0.0220091	-0.948252	0.457516	0.925022	-0.915152	0.427442	0.524021	-0.88196	0.393297	0.0636863	-0.819883	0.386117	0.0323333	-0.779641	0.353818	0.0256911	-0.952537	0.528341	1.06917	-0.866837	0.732249	1.44375	-0.879904	1.06624	1.33722	-0.879861	1.08477	1.36897	-0.899506	0.994768	1.38381	-1.14968	0.351262	1.45293	-0.9254	0.0353753	1.31811	-0.855142	0.0111647	1.34854	-0.870168	0.0558472	1.37321	-1.13152
